<svg width="321" height="182" viewBox="0 0 321 182" fill="none" xmlns="http://www.w3.org/2000/svg">
<path d="M185.08 181.766L163.195 138.174L158.888 162.483H137.643L149.605 94.7244H181.188C188.462 94.7244 193.98 96.3514 197.745 99.6052C201.509 102.859 203.391 107.198 203.391 112.621C203.391 114.216 203.264 115.652 203.008 116.928C202.179 121.522 200.201 125.557 197.075 129.034C193.949 132.512 187.5 134.5 180 134.5V137H186L208.336 181.766H185.08ZM165.684 124.01H174.107C176.148 124.01 177.759 123.547 178.939 122.622C180.119 121.697 180.901 120.246 181.284 118.268C181.348 117.949 181.38 117.534 181.38 117.023C181.38 115.62 180.933 114.519 180.039 113.722C179.147 112.924 177.838 112.525 176.116 112.525H167.693L165.684 124.01Z" fill="black"/>
<path d="M52.4326 19.5583L49.8403 35.5232H29.1188L28.5 38H34L24.8279 87.3175H6.2632L15.5543 35.5232H0L2.59231 19.5583H52.4326Z" fill="black"/>
<path d="M73.0915 38L71.8206 44.8253H99.5L96.2777 62.5H68.5L67.4087 70H95L92 87.3185H47.2148L59.1781 19.5583H104.35L100.732 38H73.0915Z" fill="black"/>
<path d="M108.877 113.442L107.606 120.267H135.285L132.063 137.942H104.285L103.194 145.442H130.785L127.785 162.76H83L94.9632 95H140.136L136.517 113.442H108.877Z" fill="black"/>
<path d="M287.877 113.442L286.606 120.267H314.285L311.063 137.942H283.285L282.194 145.442H309.785L306.785 162.76H262L273.963 95H319.136L315.517 113.442H287.877Z" fill="black"/>
<path d="M283.5 20C286.5 20.5 291 21 294 23C297 25 299.19 27.9248 301.5 32.5C304.011 37.4726 304.47 41.1576 304.47 46.4521C304.47 48.5582 304.279 50.8226 303.895 53.2476C302.748 59.6918 300.274 65.4982 296.478 70.6647C292.682 75.8336 287.865 79.9016 282.026 82.8688C276.189 85.8338 269.729 87.3185 262.647 87.3185H248.531H234.415L243.5 36H238.5L242.189 19.5584H267.5H271.5H274.5C274.5 19.5584 280.5 19.5 283.5 20ZM264.083 68.3678C268.868 68.3678 272.903 67.0598 276.189 64.444C279.475 61.8282 281.533 58.0953 282.361 53.2476C282.554 51.9723 282.65 50.79 282.65 49.7056C282.65 45.9424 281.484 43.0706 279.156 41.0924C276.827 39.1142 273.59 38.1252 269.442 38.1252H264.369L259.009 68.3678H264.083Z" fill="black"/>
<path d="M38.1693 94.7244L46 147.334H48.913L67.0195 94.7244H87.6078L62.8666 162.485H29.3981L22 111.75H17.5L15 94.7244H18.5834H38.1693Z" fill="black"/>
<path d="M230.863 163.14C222.569 163.14 215.95 161.48 211.005 158.162C206.059 154.845 203.588 149.995 203.588 143.614C203.588 142.976 203.651 142.02 203.779 140.745H226.365C226.174 142.723 226.476 144.189 227.275 145.145C228.073 146.104 229.395 146.581 231.245 146.581C232.395 146.581 233.351 146.295 234.117 145.72C234.882 145.145 235.266 144.317 235.266 143.232C235.266 141.701 234.517 140.426 233.016 139.404C231.517 138.383 229.108 137.17 225.79 135.767C222.155 134.235 219.171 132.769 216.842 131.366C214.514 129.963 212.487 128.047 210.765 125.622C209.043 123.197 208.182 120.167 208.182 116.532C208.182 111.745 209.378 107.614 211.77 104.137C214.163 100.66 217.496 98.028 221.771 96.2407C226.046 94.4557 230.926 93.562 236.414 93.562C241.327 93.562 245.713 94.3277 249.574 95.859C253.433 97.3903 256.465 99.6082 258.665 102.51C260.866 105.412 261.967 108.843 261.967 112.799C261.967 113.309 261.904 114.202 261.776 115.478H238.902C239.03 114.712 239.095 114.202 239.095 113.946C239.095 112.734 238.743 111.794 238.041 111.123C237.34 110.453 236.381 110.118 235.171 110.118C234.086 110.118 233.193 110.437 232.49 111.077C231.787 111.715 231.438 112.543 231.438 113.565C231.438 114.968 232.171 116.197 233.64 117.249C235.106 118.301 237.435 119.592 240.626 121.126C244.261 122.848 247.277 124.475 249.67 126.006C252.062 127.538 254.119 129.562 255.842 132.083C257.564 134.603 258.425 137.682 258.425 141.319C258.425 145.467 257.326 149.197 255.125 152.516C252.923 155.832 249.749 158.434 245.602 160.314C241.455 162.197 236.542 163.14 230.863 163.14Z" fill="black"/>
<path d="M149 98L140 77L132.5 57.8378H126.845L121.677 87.3149H100.431L116.531 0H137.744L128.568 48.0761C128.568 48.0761 139.5 45 144.5 37.5C149.5 30 153.068 19.5562 153.068 19.5562H176.09C176.09 19.5562 171.518 31.1291 167 37.5C159.5 48.0761 146.068 48.75 146.068 48.75L145.5 51.5H152.5L174.5 102.5L149 98Z" fill="black"/>
<path d="M167 65.7501L190.399 19.5548H216.899L229.627 87.3135H207.232L205.701 77.0731H183.115L177.946 87.3135H176.238L167 65.7501ZM204.405 61.0905L201.872 34.5H200L188.154 61.0905H204.405Z" fill="black"/>
</svg>
